<svg xmlns="http://www.w3.org/2000/svg" viewBox="0 0 1600 900" role="img" aria-labelledby="title desc">
  <title id="title">Source to projections</title>
  <desc id="desc">One reviewed content core branches into Markdown and PDF projections.</desc>
  <rect width="1600" height="900" fill="#FAFBFB"/>
  <rect x="126" y="236" width="430" height="428" rx="36" fill="#DFF5EF" stroke="#0F766E" stroke-width="8"/>
  <circle cx="341" cy="390" r="72" fill="#0F766E"/>
  <circle cx="341" cy="390" r="36" fill="#2DD4BF"/>
  <text x="341" y="548" text-anchor="middle" fill="#111827" font-family="Helvetica Neue, Arial, sans-serif" font-size="48" font-weight="700">CORE</text>
  <text x="341" y="598" text-anchor="middle" fill="#374151" font-family="Helvetica Neue, Arial, sans-serif" font-size="25" font-weight="600" letter-spacing="2">REVIEWED SOURCE</text>
  <path d="M556 450H710M710 450V286M710 450V614M710 286H876M710 614H876" fill="none" stroke="#0F766E" stroke-width="12" stroke-linecap="round" stroke-linejoin="round"/>
  <path d="M852 260L886 286L852 312M852 588L886 614L852 640" fill="none" stroke="#0F766E" stroke-width="12" stroke-linecap="round" stroke-linejoin="round"/>
  <rect x="900" y="142" width="552" height="288" rx="34" fill="#FFFFFF" stroke="#D8E5E1" stroke-width="8"/>
  <rect x="900" y="470" width="552" height="288" rx="34" fill="#FFFFFF" stroke="#D8E5E1" stroke-width="8"/>
  <rect x="970" y="213" width="120" height="146" rx="15" fill="#4F86F7"/>
  <path d="M1000 258H1060M1000 290H1060M1000 322H1041" stroke="#FFFFFF" stroke-width="12" stroke-linecap="round"/>
  <text x="1154" y="285" fill="#111827" font-family="Helvetica Neue, Arial, sans-serif" font-size="54" font-weight="700">MARKDOWN</text>
  <text x="1154" y="337" fill="#374151" font-family="Helvetica Neue, Arial, sans-serif" font-size="25">READ ON GITHUB</text>
  <rect x="970" y="541" width="120" height="146" rx="15" fill="#F97360"/>
  <path d="M1000 586H1060M1000 618H1060M1000 650H1041" stroke="#FFFFFF" stroke-width="12" stroke-linecap="round"/>
  <text x="1154" y="613" fill="#111827" font-family="Helvetica Neue, Arial, sans-serif" font-size="54" font-weight="700">PDF</text>
  <text x="1154" y="665" fill="#374151" font-family="Helvetica Neue, Arial, sans-serif" font-size="25">DOWNLOAD &amp; SHARE</text>
</svg>
